<svg xmlns="http://www.w3.org/2000/svg" width="64" height="64" viewBox="0 0 64 64">
  <defs>
    <linearGradient id="body" x1="0" y1="0" x2="1" y2="1">
      <stop offset="0%" stop-color="#6ee7ff"/>
      <stop offset="55%" stop-color="#34d399"/>
      <stop offset="100%" stop-color="#22a06b"/>
    </linearGradient>
  </defs>
  <rect width="64" height="64" rx="16" fill="#0f2233"/>
  <g transform="translate(7 8) scale(0.78)">
    <path d="M11 32 C11 19 21 12 31 16 C37 18.4 40 24 46 22 C54 19 60 27 58 37 C56 49 44 57 30 55 C17 53 11 44 11 32 Z"
          fill="url(#body)" stroke="#0f3d2e" stroke-width="2.4" stroke-linejoin="round"/>
    <path d="M40 24 c5 -1.5 8 2.5 6 6.5 c-2.4 4 -8.5 2 -8.5 -2.5 c0 -2.6 0 -3.2 2.5 -4 Z" fill="#a7f3d0" opacity="0.8"/>
    <path d="M22 40 c4.5 -0.4 6.5 4 3.4 7 c-3.2 3 -8.4 0.3 -7.4 -4 c0.4 -1.8 1.4 -2.8 4 -3 Z" fill="#a7f3d0" opacity="0.8"/>
  </g>
</svg>
